<svg width="551" height="553" viewBox="0 0 551 553" fill="none" xmlns="http://www.w3.org/2000/svg">
<path d="M275.564 355.022C319.967 355.022 355.963 319.382 355.963 275.419C355.963 231.455 319.967 195.816 275.564 195.816C231.161 195.816 195.165 231.455 195.165 275.419C195.165 319.382 231.161 355.022 275.564 355.022Z" fill="#EFF1F7"/>
<path d="M123.262 240.927C131.252 206.898 150.641 176.549 178.273 154.821C205.904 133.093 240.151 121.267 275.437 121.267C310.722 121.267 344.969 133.093 372.601 154.821C400.232 176.549 419.622 206.898 427.612 240.927H550.493C542.197 174.436 509.635 113.242 458.94 68.8676C408.244 24.4932 342.912 0 275.246 0C207.58 0 142.249 24.4932 91.5533 68.8676C40.8578 113.242 8.29626 174.436 0 240.927H123.262Z" fill="#EFF1F7"/>
<path d="M428.626 309.911C421.168 344.628 401.897 375.758 374.035 398.093C346.174 420.428 311.412 432.615 275.563 432.615C239.715 432.615 204.953 420.428 177.091 398.093C149.23 375.758 129.959 344.628 122.501 309.911H0C7.8213 376.825 40.2112 438.558 91.0084 483.367C141.806 528.177 207.466 552.937 275.5 552.937C343.534 552.937 409.194 528.177 459.992 483.367C510.789 438.558 543.179 376.825 551 309.911H428.626Z" fill="#EFF1F7"/>
</svg>
