<svg width="21" height="21" viewBox="0 0 21 21" fill="none" xmlns="http://www.w3.org/2000/svg">
<path d="M10.5024 13.5513C12.1948 13.5513 13.5667 12.193 13.5667 10.5174C13.5667 8.84183 12.1948 7.48352 10.5024 7.48352C8.81013 7.48352 7.43823 8.84183 7.43823 10.5174C7.43823 12.193 8.81013 13.5513 10.5024 13.5513Z" fill="white"/>
<path d="M4.69781 9.18232C5.00233 7.88539 5.7413 6.72872 6.79442 5.90062C7.84753 5.07253 9.15275 4.62179 10.4976 4.62179C11.8424 4.62179 13.1476 5.07253 14.2008 5.90062C15.2539 6.72872 15.9928 7.88539 16.2974 9.18232H20.9807C20.6645 6.64819 19.4235 4.31594 17.4913 2.62472C15.5592 0.933497 13.0693 0 10.4903 0C7.91141 0 5.42146 0.933497 3.48933 2.62472C1.55719 4.31594 0.316192 6.64819 0 9.18232H4.69781Z" fill="white"/>
<path d="M16.336 11.7377C16.0518 13.0608 15.3173 14.2473 14.2554 15.0985C13.1936 15.9498 11.8687 16.4142 10.5024 16.4142C9.13613 16.4142 7.81126 15.9498 6.7494 15.0985C5.68753 14.2473 4.95306 13.0608 4.66881 11.7377H0C0.298089 14.2879 1.53255 16.6407 3.46856 18.3485C5.40457 20.0563 7.90706 21 10.5 21C13.0929 21 15.5954 20.0563 17.5314 18.3485C19.4675 16.6407 20.7019 14.2879 21 11.7377H16.336Z" fill="white"/>
</svg>
