<svg width="16" height="16" viewBox="0 0 16 16" fill="none" xmlns="http://www.w3.org/2000/svg">
<path d="M8.00187 10.3248C9.29126 10.3248 10.3365 9.2899 10.3365 8.01328C10.3365 6.73666 9.29126 5.70175 8.00187 5.70175C6.71249 5.70175 5.66724 6.73666 5.66724 8.01328C5.66724 9.2899 6.71249 10.3248 8.00187 10.3248Z" fill="#8F9396"/>
<path d="M3.57929 6.99605C3.8113 6.00792 4.37433 5.12664 5.1767 4.49571C5.97907 3.86478 6.97353 3.52136 7.99816 3.52136C9.02279 3.52136 10.0172 3.86478 10.8196 4.49571C11.622 5.12664 12.185 6.00792 12.417 6.99605H15.9853C15.7444 5.06529 14.7988 3.28833 13.3267 1.99979C11.8546 0.711236 9.95753 0 7.99264 0C6.02774 0 4.13063 0.711236 2.65853 1.99979C1.18643 3.28833 0.240908 5.06529 0 6.99605H3.57929Z" fill="#8F9396"/>
<path d="M12.4465 8.94299C12.2299 9.95112 11.6703 10.8551 10.8613 11.5036C10.0522 12.1522 9.04282 12.5061 8.00184 12.5061C6.96086 12.5061 5.95144 12.1522 5.1424 11.5036C4.33336 10.8551 3.77376 9.95112 3.55719 8.94299H0C0.227116 10.886 1.16766 12.6787 2.64271 13.9798C4.11777 15.281 6.02442 16 8 16C9.97557 16 11.8822 15.281 13.3573 13.9798C14.8323 12.6787 15.7729 10.886 16 8.94299H12.4465Z" fill="#8F9396"/>
</svg>
