<svg width="12" height="16" viewBox="0 0 12 16" fill="none" xmlns="http://www.w3.org/2000/svg">
<path d="M6.00012 16C2.69165 16 0 13.1857 0 9.72637C0 7.96526 0.677955 5.56247 1.72738 3.60507C2.97372 1.28034 4.49115 0 6.00012 0C7.50897 0 9.0264 1.28034 10.2726 3.60507C11.322 5.56247 12 7.96526 12 9.72637C12 13.1857 9.30847 16 6.00012 16ZM6.00012 0.378949C5.20547 0.378949 3.63489 0.822194 2.04353 3.79038C1.02225 5.69536 0.362414 8.02526 0.362414 9.72637C0.362414 12.9767 2.89158 15.6211 6.00012 15.6211C9.10854 15.6211 11.6376 12.9767 11.6376 9.72637C11.6376 8.02539 10.9778 5.69536 9.95647 3.79038C8.36523 0.822194 6.79465 0.378949 6.00012 0.378949Z" fill="#8F9396"/>
<path fill-rule="evenodd" clip-rule="evenodd" d="M9.98868 14.1562C8.94712 15.1819 7.54381 15.8105 6.00007 15.8105C4.45629 15.8105 3.053 15.182 2.01143 14.1564C2.47067 14.5205 2.95815 14.632 3.20826 14.3929C3.42841 14.1822 3.20431 13.9717 2.86577 13.6537L2.86576 13.6537L2.86574 13.6537L2.86574 13.6537C2.72092 13.5176 2.55516 13.3619 2.39428 13.1781C2.23593 12.9969 2.09999 12.8088 1.97895 12.6413C1.68975 12.241 1.48563 11.9585 1.26403 12.1703C1.02082 12.4029 1.07346 12.8989 1.35792 13.3955C0.619308 12.3755 0.181152 11.1044 0.181152 9.72637C0.181152 6.36585 2.78618 0.189476 6.00007 0.189476C9.21371 0.189476 11.8187 6.36585 11.8187 9.72637C11.8187 11.1045 11.3805 12.3756 10.6419 13.3957C10.9264 12.899 10.9791 12.4029 10.7358 12.1703C10.5143 11.9585 10.3101 12.241 10.0209 12.6413L10.0209 12.6413C9.89988 12.8088 9.76395 12.9969 9.6056 13.1781C9.4447 13.3619 9.27893 13.5176 9.1341 13.6537C8.79557 13.9717 8.57146 14.1822 8.79161 14.3929C9.04177 14.6321 9.52937 14.5205 9.98868 14.1562ZM9.41749 11.3015C8.66029 13.0163 7.11423 13.9562 5.96393 13.4009C4.88 12.8777 5.29201 11.951 5.97672 10.4109L5.97674 10.4109C6.01866 10.3166 6.0616 10.22 6.10527 10.1211C6.14809 10.0241 6.1907 9.92699 6.23319 9.83009C6.94208 8.21378 7.62022 6.66758 8.70535 7.1917C9.85565 7.74674 10.1745 9.58691 9.41749 11.3015ZM3.02367 4.86912C3.02367 5.0826 2.85817 5.25565 2.65401 5.25565C2.44985 5.25565 2.28435 5.0826 2.28435 4.86912C2.28435 4.65565 2.44985 4.48259 2.65401 4.48259C2.85817 4.48259 3.02367 4.65565 3.02367 4.86912ZM3.98794 3.17143C4.0678 3.17143 4.13254 3.10373 4.13254 3.02023C4.13254 2.93672 4.0678 2.86903 3.98794 2.86903C3.90808 2.86903 3.84334 2.93672 3.84334 3.02023C3.84334 3.10373 3.90808 3.17143 3.98794 3.17143ZM3.44167 7.08762C3.44167 7.20831 3.3481 7.30615 3.23268 7.30615C3.11726 7.30615 3.02369 7.20831 3.02369 7.08762C3.02369 6.96693 3.11726 6.86909 3.23268 6.86909C3.3481 6.86909 3.44167 6.96693 3.44167 7.08762ZM6.4903 14.5194C6.60566 14.5194 6.69917 14.4217 6.69917 14.301C6.69917 14.1804 6.60566 14.0826 6.4903 14.0826C6.37494 14.0826 6.28143 14.1804 6.28143 14.301C6.28143 14.4217 6.37494 14.5194 6.4903 14.5194ZM5.71569 14.0825C5.71569 14.2031 5.62217 14.3009 5.50682 14.3009C5.39146 14.3009 5.29795 14.2031 5.29795 14.0825C5.29795 13.9619 5.39146 13.8641 5.50682 13.8641C5.62217 13.8641 5.71569 13.9619 5.71569 14.0825ZM8.482 4.23337C8.71798 4.23337 8.90928 4.03334 8.90928 3.78659C8.90928 3.53984 8.71798 3.33981 8.482 3.33981C8.24601 3.33981 8.05471 3.53984 8.05471 3.78659C8.05471 4.03334 8.24601 4.23337 8.482 4.23337ZM10.1121 5.69258C10.1121 5.93396 9.92501 6.12963 9.69416 6.12963C9.46332 6.12963 9.27618 5.93396 9.27618 5.69258C9.27618 5.4512 9.46332 5.25552 9.69416 5.25552C9.92501 5.25552 10.1121 5.4512 10.1121 5.69258ZM3.74512 11.9882C3.9759 11.9882 4.16299 11.7926 4.16299 11.5513C4.16299 11.31 3.9759 11.1143 3.74512 11.1143C3.51435 11.1143 3.32726 11.31 3.32726 11.5513C3.32726 11.7926 3.51435 11.9882 3.74512 11.9882ZM6.50164 5.86959C6.4771 5.64567 6.45007 5.39907 6.45007 5.14007C6.45007 4.88106 6.47711 4.63442 6.50166 4.41046C6.57418 3.74883 6.625 3.28511 5.89304 3.28511C4.91332 3.28511 4.11939 4.11577 4.11939 5.14007C4.11939 6.16437 4.91344 6.99465 5.89304 6.99465C6.62492 6.99465 6.57413 6.53113 6.50164 5.86959Z" fill="#8F9396"/>
</svg>
