<svg width="16" height="16" viewBox="0 0 16 16" fill="none" xmlns="http://www.w3.org/2000/svg">
<path fill-rule="evenodd" clip-rule="evenodd" d="M6 12C9.31371 12 12 9.31371 12 6C12 5.79865 11.9901 5.59962 11.9707 5.40336C13.7522 6.16816 15 7.93836 15 10C15 12.7614 12.7614 15 10 15C7.93836 15 6.16816 13.7522 5.40336 11.9707C5.59962 11.9901 5.79865 12 6 12ZM4.25707 11.7429C4.08989 11.1914 4 10.6062 4 10C4 6.68629 6.68629 4 10 4C10.6062 4 11.1914 4.08989 11.7429 4.25707C11.8546 4.62544 11.9318 5.00878 11.9707 5.40336C11.366 5.14376 10.6998 5 10 5C7.23858 5 5 7.23858 5 10C5 10.6998 5.14376 11.366 5.40336 11.9707C5.00878 11.9318 4.62544 11.8546 4.25707 11.7429ZM4.25707 11.7429C1.79338 10.9962 0 8.70754 0 6C0 2.68629 2.68629 0 6 0C8.70754 0 10.9962 1.79338 11.7429 4.25707C14.2066 5.0038 16 7.29246 16 10C16 13.3137 13.3137 16 10 16C7.29246 16 5.0038 14.2066 4.25707 11.7429Z" fill="#8F9396"/>
</svg>
