<svg width="59" height="30" viewBox="0 0 59 30" fill="none" xmlns="http://www.w3.org/2000/svg">
<path d="M0 5C0 2.23858 2.23858 0 5 0H54C56.7614 0 59 2.23858 59 5V25C59 27.7614 56.7614 30 54 30H5C2.23858 30 0 27.7614 0 25V5Z" fill="#EF97E6"/>
<path d="M18.3139 10.576V12.22H14.8819V13.996H17.4499V15.592H14.8819V19H12.8299V10.576H18.3139ZM24.6364 17.512H21.4924L20.9884 19H18.8404L21.8884 10.576H24.2644L27.3124 19H25.1404L24.6364 17.512ZM24.1084 15.928L23.0644 12.844L22.0324 15.928H24.1084ZM30.2921 10.576V19H28.2401V10.576H30.2921ZM36.0752 19L34.3232 15.82H33.8312V19H31.7792V10.576H35.2232C35.8872 10.576 36.4512 10.692 36.9152 10.924C37.3872 11.156 37.7392 11.476 37.9712 11.884C38.2032 12.284 38.3192 12.732 38.3192 13.228C38.3192 13.788 38.1592 14.288 37.8392 14.728C37.5272 15.168 37.0632 15.48 36.4472 15.664L38.3912 19H36.0752ZM33.8312 14.368H35.1032C35.4792 14.368 35.7592 14.276 35.9432 14.092C36.1352 13.908 36.2312 13.648 36.2312 13.312C36.2312 12.992 36.1352 12.74 35.9432 12.556C35.7592 12.372 35.4792 12.28 35.1032 12.28H33.8312V14.368ZM46.8313 10.576L43.9153 16.216V19H41.8633V16.216L38.9473 10.576H41.2753L42.9073 14.104L44.5273 10.576H46.8313Z" fill="#664062"/>
</svg>
