<svg width="77" height="30" viewBox="0 0 77 30" fill="none" xmlns="http://www.w3.org/2000/svg">
<path d="M0 5C0 2.23858 2.23858 0 5 0H72C74.7614 0 77 2.23858 77 5V25C77 27.7614 74.7614 30 72 30H5C2.23858 30 0 27.7614 0 25V5Z" fill="#D78555"/>
<path d="M18.5333 13.24C18.3813 12.96 18.1613 12.748 17.8733 12.604C17.5933 12.452 17.2613 12.376 16.8773 12.376C16.2133 12.376 15.6813 12.596 15.2813 13.036C14.8813 13.468 14.6813 14.048 14.6813 14.776C14.6813 15.552 14.8893 16.16 15.3053 16.6C15.7293 17.032 16.3093 17.248 17.0453 17.248C17.5493 17.248 17.9733 17.12 18.3173 16.864C18.6693 16.608 18.9253 16.24 19.0853 15.76H16.4813V14.248H20.9453V16.156C20.7933 16.668 20.5333 17.144 20.1653 17.584C19.8053 18.024 19.3453 18.38 18.7853 18.652C18.2253 18.924 17.5933 19.06 16.8893 19.06C16.0573 19.06 15.3133 18.88 14.6573 18.52C14.0093 18.152 13.5013 17.644 13.1333 16.996C12.7733 16.348 12.5933 15.608 12.5933 14.776C12.5933 13.944 12.7733 13.204 13.1333 12.556C13.5013 11.9 14.0093 11.392 14.6573 11.032C15.3053 10.664 16.0453 10.48 16.8773 10.48C17.8853 10.48 18.7333 10.724 19.4213 11.212C20.1173 11.7 20.5773 12.376 20.8013 13.24H18.5333ZM26.3779 19L24.6259 15.82H24.1339V19H22.0819V10.576H25.5259C26.1899 10.576 26.7539 10.692 27.2179 10.924C27.6899 11.156 28.0419 11.476 28.2739 11.884C28.5059 12.284 28.6219 12.732 28.6219 13.228C28.6219 13.788 28.4619 14.288 28.1419 14.728C27.8299 15.168 27.3659 15.48 26.7499 15.664L28.6939 19H26.3779ZM24.1339 14.368H25.4059C25.7819 14.368 26.0619 14.276 26.2459 14.092C26.4379 13.908 26.5339 13.648 26.5339 13.312C26.5339 12.992 26.4379 12.74 26.2459 12.556C26.0619 12.372 25.7819 12.28 25.4059 12.28H24.1339V14.368ZM33.894 19.084C33.102 19.084 32.374 18.9 31.71 18.532C31.054 18.164 30.53 17.652 30.138 16.996C29.754 16.332 29.562 15.588 29.562 14.764C29.562 13.94 29.754 13.2 30.138 12.544C30.53 11.888 31.054 11.376 31.71 11.008C32.374 10.64 33.102 10.456 33.894 10.456C34.686 10.456 35.41 10.64 36.066 11.008C36.73 11.376 37.25 11.888 37.626 12.544C38.01 13.2 38.202 13.94 38.202 14.764C38.202 15.588 38.01 16.332 37.626 16.996C37.242 17.652 36.722 18.164 36.066 18.532C35.41 18.9 34.686 19.084 33.894 19.084ZM33.894 17.212C34.566 17.212 35.102 16.988 35.502 16.54C35.91 16.092 36.114 15.5 36.114 14.764C36.114 14.02 35.91 13.428 35.502 12.988C35.102 12.54 34.566 12.316 33.894 12.316C33.214 12.316 32.67 12.536 32.262 12.976C31.862 13.416 31.662 14.012 31.662 14.764C31.662 15.508 31.862 16.104 32.262 16.552C32.67 16.992 33.214 17.212 33.894 17.212ZM41.3596 10.576V15.616C41.3596 16.12 41.4836 16.508 41.7316 16.78C41.9796 17.052 42.3436 17.188 42.8236 17.188C43.3036 17.188 43.6716 17.052 43.9276 16.78C44.1836 16.508 44.3116 16.12 44.3116 15.616V10.576H46.3636V15.604C46.3636 16.356 46.2036 16.992 45.8836 17.512C45.5636 18.032 45.1316 18.424 44.5876 18.688C44.0516 18.952 43.4516 19.084 42.7876 19.084C42.1236 19.084 41.5276 18.956 40.9996 18.7C40.4796 18.436 40.0676 18.044 39.7636 17.524C39.4596 16.996 39.3076 16.356 39.3076 15.604V10.576H41.3596ZM55.3405 19H53.2885L49.8565 13.804V19H47.8045V10.576H49.8565L53.2885 15.796V10.576H55.3405V19ZM59.984 10.576C60.872 10.576 61.648 10.752 62.312 11.104C62.976 11.456 63.488 11.952 63.848 12.592C64.216 13.224 64.4 13.956 64.4 14.788C64.4 15.612 64.216 16.344 63.848 16.984C63.488 17.624 62.972 18.12 62.3 18.472C61.636 18.824 60.864 19 59.984 19H56.828V10.576H59.984ZM59.852 17.224C60.628 17.224 61.232 17.012 61.664 16.588C62.096 16.164 62.312 15.564 62.312 14.788C62.312 14.012 62.096 13.408 61.664 12.976C61.232 12.544 60.628 12.328 59.852 12.328H58.88V17.224H59.852Z" fill="#663F28"/>
</svg>
