<svg width="67" height="30" viewBox="0 0 67 30" fill="none" xmlns="http://www.w3.org/2000/svg">
<path d="M0 5C0 2.23858 2.23858 0 5 0H62C64.7614 0 67 2.23858 67 5V25C67 27.7614 64.7614 30 62 30H5C2.23858 30 0 27.7614 0 25V5Z" fill="#559EDF"/>
<path d="M24.3965 10.576L22.2005 19H19.7165L18.3725 13.456L16.9805 19H14.4965L12.3605 10.576H14.5565L15.7685 16.708L17.2685 10.576H19.5245L20.9645 16.708L22.1885 10.576H24.3965ZM30.6696 17.512H27.5256L27.0216 19H24.8736L27.9216 10.576H30.2976L33.3456 19H31.1736L30.6696 17.512ZM30.1416 15.928L29.0976 12.844L28.0656 15.928H30.1416ZM40.3333 10.576V12.22H38.1013V19H36.0493V12.22H33.8173V10.576H40.3333ZM43.4151 12.22V13.924H46.1631V15.508H43.4151V17.356H46.5231V19H41.3631V10.576H46.5231V12.22H43.4151ZM52.1513 19L50.3993 15.82H49.9073V19H47.8553V10.576H51.2993C51.9633 10.576 52.5273 10.692 52.9913 10.924C53.4633 11.156 53.8153 11.476 54.0473 11.884C54.2793 12.284 54.3953 12.732 54.3953 13.228C54.3953 13.788 54.2353 14.288 53.9153 14.728C53.6033 15.168 53.1393 15.48 52.5233 15.664L54.4673 19H52.1513ZM49.9073 14.368H51.1793C51.5553 14.368 51.8353 14.276 52.0193 14.092C52.2113 13.908 52.3073 13.648 52.3073 13.312C52.3073 12.992 52.2113 12.74 52.0193 12.556C51.8353 12.372 51.5553 12.28 51.1793 12.28H49.9073V14.368Z" fill="#274866"/>
</svg>
