<svg width="81" height="30" viewBox="0 0 81 30" fill="none" xmlns="http://www.w3.org/2000/svg">
<path d="M0 5C0 2.23858 2.23858 0 5 0H76C78.7614 0 81 2.23858 81 5V25C81 27.7614 78.7614 30 76 30H5C2.23858 30 0 27.7614 0 25V5Z" fill="#D94256"/>
<path d="M18.3218 10.576V12.22H14.8898V13.996H17.4578V15.592H14.8898V19H12.8378V10.576H18.3218ZM21.4523 10.576V19H19.4003V10.576H21.4523ZM28.5313 13.24C28.3793 12.96 28.1593 12.748 27.8713 12.604C27.5913 12.452 27.2593 12.376 26.8753 12.376C26.2113 12.376 25.6793 12.596 25.2793 13.036C24.8793 13.468 24.6793 14.048 24.6793 14.776C24.6793 15.552 24.8873 16.16 25.3033 16.6C25.7273 17.032 26.3073 17.248 27.0433 17.248C27.5473 17.248 27.9713 17.12 28.3153 16.864C28.6673 16.608 28.9233 16.24 29.0833 15.76H26.4793V14.248H30.9433V16.156C30.7913 16.668 30.5313 17.144 30.1633 17.584C29.8033 18.024 29.3433 18.38 28.7833 18.652C28.2233 18.924 27.5913 19.06 26.8873 19.06C26.0553 19.06 25.3113 18.88 24.6553 18.52C24.0073 18.152 23.4993 17.644 23.1313 16.996C22.7713 16.348 22.5913 15.608 22.5913 14.776C22.5913 13.944 22.7713 13.204 23.1313 12.556C23.4993 11.9 24.0073 11.392 24.6553 11.032C25.3033 10.664 26.0433 10.48 26.8753 10.48C27.8833 10.48 28.7313 10.724 29.4193 11.212C30.1153 11.7 30.5753 12.376 30.7993 13.24H28.5313ZM39.3759 10.576V19H37.3239V15.532H34.1319V19H32.0799V10.576H34.1319V13.876H37.3239V10.576H39.3759ZM46.9173 10.576V12.22H44.6853V19H42.6333V12.22H40.4013V10.576H46.9173ZM49.9991 10.576V19H47.9471V10.576H49.9991ZM59.0222 19H56.9702L53.5382 13.804V19H51.4862V10.576H53.5382L56.9702 15.796V10.576H59.0222V19ZM66.1016 13.24C65.9496 12.96 65.7296 12.748 65.4416 12.604C65.1616 12.452 64.8296 12.376 64.4456 12.376C63.7816 12.376 63.2496 12.596 62.8496 13.036C62.4496 13.468 62.2496 14.048 62.2496 14.776C62.2496 15.552 62.4576 16.16 62.8736 16.6C63.2976 17.032 63.8776 17.248 64.6136 17.248C65.1176 17.248 65.5416 17.12 65.8856 16.864C66.2376 16.608 66.4936 16.24 66.6536 15.76H64.0496V14.248H68.5136V16.156C68.3616 16.668 68.1016 17.144 67.7336 17.584C67.3736 18.024 66.9136 18.38 66.3536 18.652C65.7936 18.924 65.1616 19.06 64.4576 19.06C63.6256 19.06 62.8816 18.88 62.2256 18.52C61.5776 18.152 61.0696 17.644 60.7016 16.996C60.3416 16.348 60.1616 15.608 60.1616 14.776C60.1616 13.944 60.3416 13.204 60.7016 12.556C61.0696 11.9 61.5776 11.392 62.2256 11.032C62.8736 10.664 63.6136 10.48 64.4456 10.48C65.4536 10.48 66.3016 10.724 66.9896 11.212C67.6856 11.7 68.1456 12.376 68.3696 13.24H66.1016Z" fill="#661F28"/>
</svg>
