<svg width="50" height="30" viewBox="0 0 50 30" fill="none" xmlns="http://www.w3.org/2000/svg">
<path d="M0 5C0 2.23858 2.23858 0 5 0H45C47.7614 0 50 2.23858 50 5V25C50 27.7614 47.7614 30 45 30H5C2.23858 30 0 27.7614 0 25V5Z" fill="#9DC130"/>
<path d="M18.0881 14.68C18.5761 14.784 18.9681 15.028 19.2641 15.412C19.5601 15.788 19.7081 16.22 19.7081 16.708C19.7081 17.412 19.4601 17.972 18.9641 18.388C18.4761 18.796 17.7921 19 16.9121 19H12.9881V10.576H16.7801C17.6361 10.576 18.3041 10.772 18.7841 11.164C19.2721 11.556 19.5161 12.088 19.5161 12.76C19.5161 13.256 19.3841 13.668 19.1201 13.996C18.8641 14.324 18.5201 14.552 18.0881 14.68ZM15.0401 13.984H16.3841C16.7201 13.984 16.9761 13.912 17.1521 13.768C17.3361 13.616 17.4281 13.396 17.4281 13.108C17.4281 12.82 17.3361 12.6 17.1521 12.448C16.9761 12.296 16.7201 12.22 16.3841 12.22H15.0401V13.984ZM16.5521 17.344C16.8961 17.344 17.1601 17.268 17.3441 17.116C17.5361 16.956 17.6321 16.728 17.6321 16.432C17.6321 16.136 17.5321 15.904 17.3321 15.736C17.1401 15.568 16.8721 15.484 16.5281 15.484H15.0401V17.344H16.5521ZM22.9143 10.576V15.616C22.9143 16.12 23.0383 16.508 23.2863 16.78C23.5343 17.052 23.8983 17.188 24.3783 17.188C24.8583 17.188 25.2263 17.052 25.4823 16.78C25.7383 16.508 25.8663 16.12 25.8663 15.616V10.576H27.9183V15.604C27.9183 16.356 27.7583 16.992 27.4383 17.512C27.1183 18.032 26.6863 18.424 26.1423 18.688C25.6063 18.952 25.0063 19.084 24.3423 19.084C23.6783 19.084 23.0823 18.956 22.5543 18.7C22.0343 18.436 21.6223 18.044 21.3183 17.524C21.0143 16.996 20.8623 16.356 20.8623 15.604V10.576H22.9143ZM34.9512 13.24C34.7992 12.96 34.5792 12.748 34.2912 12.604C34.0112 12.452 33.6792 12.376 33.2952 12.376C32.6312 12.376 32.0992 12.596 31.6992 13.036C31.2992 13.468 31.0992 14.048 31.0992 14.776C31.0992 15.552 31.3072 16.16 31.7232 16.6C32.1472 17.032 32.7272 17.248 33.4632 17.248C33.9672 17.248 34.3912 17.12 34.7352 16.864C35.0872 16.608 35.3432 16.24 35.5032 15.76H32.8992V14.248H37.3632V16.156C37.2112 16.668 36.9512 17.144 36.5832 17.584C36.2232 18.024 35.7632 18.38 35.2032 18.652C34.6432 18.924 34.0112 19.06 33.3072 19.06C32.4752 19.06 31.7312 18.88 31.0752 18.52C30.4272 18.152 29.9192 17.644 29.5512 16.996C29.1912 16.348 29.0112 15.608 29.0112 14.776C29.0112 13.944 29.1912 13.204 29.5512 12.556C29.9192 11.9 30.4272 11.392 31.0752 11.032C31.7232 10.664 32.4632 10.48 33.2952 10.48C34.3032 10.48 35.1512 10.724 35.8392 11.212C36.5352 11.7 36.9952 12.376 37.2192 13.24H34.9512Z" fill="#536619"/>
</svg>
