<svg width="49" height="30" viewBox="0 0 49 30" fill="none" xmlns="http://www.w3.org/2000/svg">
<path d="M0 5C0 2.23858 2.23858 0 5 0H44C46.7614 0 49 2.23858 49 5V25C49 27.7614 46.7614 30 44 30H5C2.23858 30 0 27.7614 0 25V5Z" fill="#F8A54F"/>
<path d="M18.5171 10.576V12.22H15.0851V13.996H17.6531V15.592H15.0851V19H13.0331V10.576H18.5171ZM21.6476 10.576V19H19.5956V10.576H21.6476ZM27.4306 19L25.6786 15.82H25.1866V19H23.1346V10.576H26.5786C27.2426 10.576 27.8066 10.692 28.2706 10.924C28.7426 11.156 29.0946 11.476 29.3266 11.884C29.5586 12.284 29.6746 12.732 29.6746 13.228C29.6746 13.788 29.5146 14.288 29.1946 14.728C28.8826 15.168 28.4186 15.48 27.8026 15.664L29.7466 19H27.4306ZM25.1866 14.368H26.4586C26.8346 14.368 27.1146 14.276 27.2986 14.092C27.4906 13.908 27.5866 13.648 27.5866 13.312C27.5866 12.992 27.4906 12.74 27.2986 12.556C27.1146 12.372 26.8346 12.28 26.4586 12.28H25.1866V14.368ZM33.0148 12.22V13.924H35.7628V15.508H33.0148V17.356H36.1228V19H30.9628V10.576H36.1228V12.22H33.0148Z" fill="#664420"/>
</svg>
