<svg width="65" height="30" viewBox="0 0 65 30" fill="none" xmlns="http://www.w3.org/2000/svg">
<path d="M0 5C0 2.23858 2.23858 0 5 0H60C62.7614 0 65 2.23858 65 5V25C65 27.7614 62.7614 30 60 30H5C2.23858 30 0 27.7614 0 25V5Z" fill="#5DBE62"/>
<path d="M18.545 13.24C18.393 12.96 18.173 12.748 17.885 12.604C17.605 12.452 17.273 12.376 16.889 12.376C16.225 12.376 15.693 12.596 15.293 13.036C14.893 13.468 14.693 14.048 14.693 14.776C14.693 15.552 14.901 16.16 15.317 16.6C15.741 17.032 16.321 17.248 17.057 17.248C17.561 17.248 17.985 17.12 18.329 16.864C18.681 16.608 18.937 16.24 19.097 15.76H16.493V14.248H20.957V16.156C20.805 16.668 20.545 17.144 20.177 17.584C19.817 18.024 19.357 18.38 18.797 18.652C18.237 18.924 17.605 19.06 16.901 19.06C16.069 19.06 15.325 18.88 14.669 18.52C14.021 18.152 13.513 17.644 13.145 16.996C12.785 16.348 12.605 15.608 12.605 14.776C12.605 13.944 12.785 13.204 13.145 12.556C13.513 11.9 14.021 11.392 14.669 11.032C15.317 10.664 16.057 10.48 16.889 10.48C17.897 10.48 18.745 10.724 19.433 11.212C20.129 11.7 20.589 12.376 20.813 13.24H18.545ZM26.3896 19L24.6376 15.82H24.1456V19H22.0936V10.576H25.5376C26.2016 10.576 26.7656 10.692 27.2296 10.924C27.7016 11.156 28.0536 11.476 28.2856 11.884C28.5176 12.284 28.6336 12.732 28.6336 13.228C28.6336 13.788 28.4736 14.288 28.1536 14.728C27.8416 15.168 27.3776 15.48 26.7616 15.664L28.7056 19H26.3896ZM24.1456 14.368H25.4176C25.7936 14.368 26.0736 14.276 26.2576 14.092C26.4496 13.908 26.5456 13.648 26.5456 13.312C26.5456 12.992 26.4496 12.74 26.2576 12.556C26.0736 12.372 25.7936 12.28 25.4176 12.28H24.1456V14.368ZM35.1657 17.512H32.0217L31.5177 19H29.3697L32.4177 10.576H34.7937L37.8417 19H35.6697L35.1657 17.512ZM34.6377 15.928L33.5937 12.844L32.5617 15.928H34.6377ZM41.8174 19.084C41.2014 19.084 40.6494 18.984 40.1614 18.784C39.6734 18.584 39.2814 18.288 38.9854 17.896C38.6974 17.504 38.5454 17.032 38.5294 16.48H40.7134C40.7454 16.792 40.8534 17.032 41.0374 17.2C41.2214 17.36 41.4614 17.44 41.7574 17.44C42.0614 17.44 42.3014 17.372 42.4774 17.236C42.6534 17.092 42.7414 16.896 42.7414 16.648C42.7414 16.44 42.6694 16.268 42.5254 16.132C42.3894 15.996 42.2174 15.884 42.0094 15.796C41.8094 15.708 41.5214 15.608 41.1454 15.496C40.6014 15.328 40.1574 15.16 39.8134 14.992C39.4694 14.824 39.1734 14.576 38.9254 14.248C38.6774 13.92 38.5534 13.492 38.5534 12.964C38.5534 12.18 38.8374 11.568 39.4054 11.128C39.9734 10.68 40.7134 10.456 41.6254 10.456C42.5534 10.456 43.3014 10.68 43.8694 11.128C44.4374 11.568 44.7414 12.184 44.7814 12.976H42.5614C42.5454 12.704 42.4454 12.492 42.2614 12.34C42.0774 12.18 41.8414 12.1 41.5534 12.1C41.3054 12.1 41.1054 12.168 40.9534 12.304C40.8014 12.432 40.7254 12.62 40.7254 12.868C40.7254 13.14 40.8534 13.352 41.1094 13.504C41.3654 13.656 41.7654 13.82 42.3094 13.996C42.8534 14.18 43.2934 14.356 43.6294 14.524C43.9734 14.692 44.2694 14.936 44.5174 15.256C44.7654 15.576 44.8894 15.988 44.8894 16.492C44.8894 16.972 44.7654 17.408 44.5174 17.8C44.2774 18.192 43.9254 18.504 43.4614 18.736C42.9974 18.968 42.4494 19.084 41.8174 19.084ZM49.2002 19.084C48.5842 19.084 48.0322 18.984 47.5442 18.784C47.0562 18.584 46.6642 18.288 46.3682 17.896C46.0802 17.504 45.9282 17.032 45.9122 16.48H48.0962C48.1282 16.792 48.2362 17.032 48.4202 17.2C48.6042 17.36 48.8442 17.44 49.1402 17.44C49.4442 17.44 49.6842 17.372 49.8602 17.236C50.0362 17.092 50.1242 16.896 50.1242 16.648C50.1242 16.44 50.0522 16.268 49.9082 16.132C49.7722 15.996 49.6002 15.884 49.3922 15.796C49.1922 15.708 48.9042 15.608 48.5282 15.496C47.9842 15.328 47.5402 15.16 47.1962 14.992C46.8522 14.824 46.5562 14.576 46.3082 14.248C46.0602 13.92 45.9362 13.492 45.9362 12.964C45.9362 12.18 46.2202 11.568 46.7882 11.128C47.3562 10.68 48.0962 10.456 49.0082 10.456C49.9362 10.456 50.6842 10.68 51.2522 11.128C51.8202 11.568 52.1242 12.184 52.1642 12.976H49.9442C49.9282 12.704 49.8282 12.492 49.6442 12.34C49.4602 12.18 49.2242 12.1 48.9362 12.1C48.6882 12.1 48.4882 12.168 48.3362 12.304C48.1842 12.432 48.1082 12.62 48.1082 12.868C48.1082 13.14 48.2362 13.352 48.4922 13.504C48.7482 13.656 49.1482 13.82 49.6922 13.996C50.2362 14.18 50.6762 14.356 51.0122 14.524C51.3562 14.692 51.6522 14.936 51.9002 15.256C52.1482 15.576 52.2722 15.988 52.2722 16.492C52.2722 16.972 52.1482 17.408 51.9002 17.8C51.6602 18.192 51.3082 18.504 50.8442 18.736C50.3802 18.968 49.8322 19.084 49.2002 19.084Z" fill="#326635"/>
</svg>
