<svg width="59" height="30" viewBox="0 0 59 30" fill="none" xmlns="http://www.w3.org/2000/svg">
<path d="M0 5C0 2.23858 2.23858 0 5 0H54C56.7614 0 59 2.23858 59 5V25C59 27.7614 56.7614 30 54 30H5C2.23858 30 0 27.7614 0 25V5Z" fill="#CEC18C"/>
<path d="M17.1552 19L15.4032 15.82H14.9112V19H12.8592V10.576H16.3032C16.9672 10.576 17.5312 10.692 17.9952 10.924C18.4672 11.156 18.8192 11.476 19.0512 11.884C19.2832 12.284 19.3992 12.732 19.3992 13.228C19.3992 13.788 19.2392 14.288 18.9192 14.728C18.6072 15.168 18.1432 15.48 17.5272 15.664L19.4712 19H17.1552ZM14.9112 14.368H16.1832C16.5592 14.368 16.8392 14.276 17.0232 14.092C17.2152 13.908 17.3112 13.648 17.3112 13.312C17.3112 12.992 17.2152 12.74 17.0232 12.556C16.8392 12.372 16.5592 12.28 16.1832 12.28H14.9112V14.368ZM24.6714 19.084C23.8794 19.084 23.1514 18.9 22.4874 18.532C21.8314 18.164 21.3074 17.652 20.9154 16.996C20.5314 16.332 20.3394 15.588 20.3394 14.764C20.3394 13.94 20.5314 13.2 20.9154 12.544C21.3074 11.888 21.8314 11.376 22.4874 11.008C23.1514 10.64 23.8794 10.456 24.6714 10.456C25.4634 10.456 26.1874 10.64 26.8434 11.008C27.5074 11.376 28.0274 11.888 28.4034 12.544C28.7874 13.2 28.9794 13.94 28.9794 14.764C28.9794 15.588 28.7874 16.332 28.4034 16.996C28.0194 17.652 27.4994 18.164 26.8434 18.532C26.1874 18.9 25.4634 19.084 24.6714 19.084ZM24.6714 17.212C25.3434 17.212 25.8794 16.988 26.2794 16.54C26.6874 16.092 26.8914 15.5 26.8914 14.764C26.8914 14.02 26.6874 13.428 26.2794 12.988C25.8794 12.54 25.3434 12.316 24.6714 12.316C23.9914 12.316 23.4474 12.536 23.0394 12.976C22.6394 13.416 22.4394 14.012 22.4394 14.764C22.4394 15.508 22.6394 16.104 23.0394 16.552C23.4474 16.992 23.9914 17.212 24.6714 17.212ZM29.773 14.776C29.773 13.944 29.953 13.204 30.313 12.556C30.673 11.9 31.173 11.392 31.813 11.032C32.461 10.664 33.193 10.48 34.009 10.48C35.009 10.48 35.865 10.744 36.577 11.272C37.289 11.8 37.765 12.52 38.005 13.432H35.749C35.581 13.08 35.341 12.812 35.029 12.628C34.725 12.444 34.377 12.352 33.985 12.352C33.353 12.352 32.841 12.572 32.449 13.012C32.057 13.452 31.861 14.04 31.861 14.776C31.861 15.512 32.057 16.1 32.449 16.54C32.841 16.98 33.353 17.2 33.985 17.2C34.377 17.2 34.725 17.108 35.029 16.924C35.341 16.74 35.581 16.472 35.749 16.12H38.005C37.765 17.032 37.289 17.752 36.577 18.28C35.865 18.8 35.009 19.06 34.009 19.06C33.193 19.06 32.461 18.88 31.813 18.52C31.173 18.152 30.673 17.644 30.313 16.996C29.953 16.348 29.773 15.608 29.773 14.776ZM44.1456 19L41.3136 15.28V19H39.2616V10.576H41.3136V14.272L44.1216 10.576H46.5336L43.2696 14.704L46.6536 19H44.1456Z" fill="#666045"/>
</svg>
