<svg width="80" height="30" viewBox="0 0 80 30" fill="none" xmlns="http://www.w3.org/2000/svg">
<path d="M0 5C0 2.23858 2.23858 0 5 0H75C77.7614 0 80 2.23858 80 5V25C80 27.7614 77.7614 30 75 30H5C2.23858 30 0 27.7614 0 25V5Z" fill="#EDD53F"/>
<path d="M15.0753 12.22V13.924H17.8233V15.508H15.0753V17.356H18.1833V19H13.0233V10.576H18.1833V12.22H15.0753ZM21.5675 17.416H24.2555V19H19.5155V10.576H21.5675V17.416ZM27.2862 12.22V13.924H30.0342V15.508H27.2862V17.356H30.3942V19H25.2342V10.576H30.3942V12.22H27.2862ZM31.3784 14.776C31.3784 13.944 31.5584 13.204 31.9184 12.556C32.2784 11.9 32.7784 11.392 33.4184 11.032C34.0664 10.664 34.7984 10.48 35.6144 10.48C36.6144 10.48 37.4704 10.744 38.1824 11.272C38.8944 11.8 39.3704 12.52 39.6104 13.432H37.3544C37.1864 13.08 36.9464 12.812 36.6344 12.628C36.3304 12.444 35.9824 12.352 35.5904 12.352C34.9584 12.352 34.4464 12.572 34.0544 13.012C33.6624 13.452 33.4664 14.04 33.4664 14.776C33.4664 15.512 33.6624 16.1 34.0544 16.54C34.4464 16.98 34.9584 17.2 35.5904 17.2C35.9824 17.2 36.3304 17.108 36.6344 16.924C36.9464 16.74 37.1864 16.472 37.3544 16.12H39.6104C39.3704 17.032 38.8944 17.752 38.1824 18.28C37.4704 18.8 36.6144 19.06 35.6144 19.06C34.7984 19.06 34.0664 18.88 33.4184 18.52C32.7784 18.152 32.2784 17.644 31.9184 16.996C31.5584 16.348 31.3784 15.608 31.3784 14.776ZM46.927 10.576V12.22H44.695V19H42.643V12.22H40.411V10.576H46.927ZM52.2529 19L50.5009 15.82H50.0089V19H47.9569V10.576H51.4009C52.0649 10.576 52.6289 10.692 53.0929 10.924C53.5649 11.156 53.9169 11.476 54.1489 11.884C54.3809 12.284 54.4969 12.732 54.4969 13.228C54.4969 13.788 54.3369 14.288 54.0169 14.728C53.7049 15.168 53.2409 15.48 52.6249 15.664L54.5689 19H52.2529ZM50.0089 14.368H51.2809C51.6569 14.368 51.9369 14.276 52.1209 14.092C52.3129 13.908 52.4089 13.648 52.4089 13.312C52.4089 12.992 52.3129 12.74 52.1209 12.556C51.9369 12.372 51.6569 12.28 51.2809 12.28H50.0089V14.368ZM57.837 10.576V19H55.785V10.576H57.837ZM58.9761 14.776C58.9761 13.944 59.1561 13.204 59.5161 12.556C59.8761 11.9 60.3761 11.392 61.0161 11.032C61.6641 10.664 62.3961 10.48 63.2121 10.48C64.2121 10.48 65.0681 10.744 65.7801 11.272C66.4921 11.8 66.9681 12.52 67.2081 13.432H64.9521C64.7841 13.08 64.5441 12.812 64.2321 12.628C63.9281 12.444 63.5801 12.352 63.1881 12.352C62.5561 12.352 62.0441 12.572 61.6521 13.012C61.2601 13.452 61.0641 14.04 61.0641 14.776C61.0641 15.512 61.2601 16.1 61.6521 16.54C62.0441 16.98 62.5561 17.2 63.1881 17.2C63.5801 17.2 63.9281 17.108 64.2321 16.924C64.5441 16.74 64.7841 16.472 64.9521 16.12H67.2081C66.9681 17.032 66.4921 17.752 65.7801 18.28C65.0681 18.8 64.2121 19.06 63.2121 19.06C62.3961 19.06 61.6641 18.88 61.0161 18.52C60.3761 18.152 59.8761 17.644 59.5161 16.996C59.1561 16.348 58.9761 15.608 58.9761 14.776Z" fill="#665C1B"/>
</svg>
