<svg width="76" height="30" viewBox="0 0 76 30" fill="none" xmlns="http://www.w3.org/2000/svg">
<path d="M0 5C0 2.23858 2.23858 0 5 0H71C73.7614 0 76 2.23858 76 5V25C76 27.7614 73.7614 30 71 30H5C2.23858 30 0 27.7614 0 25V5Z" fill="#9A9DA1"/>
<path d="M20.3464 19H18.2944L14.8624 13.804V19H12.8104V10.576H14.8624L18.2944 15.796V10.576H20.3464V19ZM25.8178 19.084C25.0258 19.084 24.2978 18.9 23.6338 18.532C22.9778 18.164 22.4538 17.652 22.0618 16.996C21.6778 16.332 21.4858 15.588 21.4858 14.764C21.4858 13.94 21.6778 13.2 22.0618 12.544C22.4538 11.888 22.9778 11.376 23.6338 11.008C24.2978 10.64 25.0258 10.456 25.8178 10.456C26.6098 10.456 27.3338 10.64 27.9898 11.008C28.6538 11.376 29.1738 11.888 29.5498 12.544C29.9338 13.2 30.1258 13.94 30.1258 14.764C30.1258 15.588 29.9338 16.332 29.5498 16.996C29.1658 17.652 28.6458 18.164 27.9898 18.532C27.3338 18.9 26.6098 19.084 25.8178 19.084ZM25.8178 17.212C26.4898 17.212 27.0258 16.988 27.4258 16.54C27.8338 16.092 28.0378 15.5 28.0378 14.764C28.0378 14.02 27.8338 13.428 27.4258 12.988C27.0258 12.54 26.4898 12.316 25.8178 12.316C25.1378 12.316 24.5938 12.536 24.1858 12.976C23.7858 13.416 23.5858 14.012 23.5858 14.764C23.5858 15.508 23.7858 16.104 24.1858 16.552C24.5938 16.992 25.1378 17.212 25.8178 17.212ZM35.5634 19L33.8114 15.82H33.3194V19H31.2674V10.576H34.7114C35.3754 10.576 35.9394 10.692 36.4034 10.924C36.8754 11.156 37.2274 11.476 37.4594 11.884C37.6914 12.284 37.8074 12.732 37.8074 13.228C37.8074 13.788 37.6474 14.288 37.3274 14.728C37.0154 15.168 36.5514 15.48 35.9354 15.664L37.8794 19H35.5634ZM33.3194 14.368H34.5914C34.9674 14.368 35.2474 14.276 35.4314 14.092C35.6234 13.908 35.7194 13.648 35.7194 13.312C35.7194 12.992 35.6234 12.74 35.4314 12.556C35.2474 12.372 34.9674 12.28 34.5914 12.28H33.3194V14.368ZM48.6356 10.576V19H46.5836V13.948L44.6996 19H43.0436L41.1476 13.936V19H39.0956V10.576H41.5196L43.8836 16.408L46.2236 10.576H48.6356ZM55.3552 17.512H52.2112L51.7072 19H49.5592L52.6072 10.576H54.9832L58.0312 19H55.8592L55.3552 17.512ZM54.8272 15.928L53.7832 12.844L52.7512 15.928H54.8272ZM61.0108 17.416H63.6988V19H58.9588V10.576H61.0108V17.416Z" fill="#626366"/>
</svg>
