<svg width="58" height="30" viewBox="0 0 58 30" fill="none" xmlns="http://www.w3.org/2000/svg">
<path d="M0 5C0 2.23858 2.23858 0 5 0H53C55.7614 0 58 2.23858 58 5V25C58 27.7614 55.7614 30 53 30H5C2.23858 30 0 27.7614 0 25V5Z" fill="#5596A4"/>
<path d="M16.2041 19.084C15.5881 19.084 15.0361 18.984 14.5481 18.784C14.0601 18.584 13.6681 18.288 13.3721 17.896C13.0841 17.504 12.9321 17.032 12.9161 16.48H15.1001C15.1321 16.792 15.2401 17.032 15.4241 17.2C15.6081 17.36 15.8481 17.44 16.1441 17.44C16.4481 17.44 16.6881 17.372 16.8641 17.236C17.0401 17.092 17.1281 16.896 17.1281 16.648C17.1281 16.44 17.0561 16.268 16.9121 16.132C16.7761 15.996 16.6041 15.884 16.3961 15.796C16.1961 15.708 15.9081 15.608 15.5321 15.496C14.9881 15.328 14.5441 15.16 14.2001 14.992C13.8561 14.824 13.5601 14.576 13.3121 14.248C13.0641 13.92 12.9401 13.492 12.9401 12.964C12.9401 12.18 13.2241 11.568 13.7921 11.128C14.3601 10.68 15.1001 10.456 16.0121 10.456C16.9401 10.456 17.6881 10.68 18.2561 11.128C18.8241 11.568 19.1281 12.184 19.1681 12.976H16.9481C16.9321 12.704 16.8321 12.492 16.6481 12.34C16.4641 12.18 16.2281 12.1 15.9401 12.1C15.6921 12.1 15.4921 12.168 15.3401 12.304C15.1881 12.432 15.1121 12.62 15.1121 12.868C15.1121 13.14 15.2401 13.352 15.4961 13.504C15.7521 13.656 16.1521 13.82 16.6961 13.996C17.2401 14.18 17.6801 14.356 18.0161 14.524C18.3601 14.692 18.6561 14.936 18.9041 15.256C19.1521 15.576 19.2761 15.988 19.2761 16.492C19.2761 16.972 19.1521 17.408 18.9041 17.8C18.6641 18.192 18.3121 18.504 17.8481 18.736C17.3841 18.968 16.8361 19.084 16.2041 19.084ZM26.5989 10.576V12.22H24.3669V19H22.3149V12.22H20.0829V10.576H26.5989ZM29.6808 12.22V13.924H32.4288V15.508H29.6808V17.356H32.7888V19H27.6288V10.576H32.7888V12.22H29.6808ZM36.173 12.22V13.924H38.921V15.508H36.173V17.356H39.281V19H34.121V10.576H39.281V12.22H36.173ZM42.6651 17.416H45.3531V19H40.6131V10.576H42.6651V17.416Z" fill="#28464D"/>
</svg>
