<svg width="71" height="30" viewBox="0 0 71 30" fill="none" xmlns="http://www.w3.org/2000/svg">
<path d="M0 5C0 2.23858 2.23858 0 5 0H66C68.7614 0 71 2.23858 71 5V25C71 27.7614 68.7614 30 66 30H5C2.23858 30 0 27.7614 0 25V5Z" fill="#B563CE"/>
<path d="M19.5136 13.288C19.5136 13.776 19.4016 14.224 19.1776 14.632C18.9536 15.032 18.6096 15.356 18.1456 15.604C17.6816 15.852 17.1056 15.976 16.4176 15.976H15.1456V19H13.0936V10.576H16.4176C17.0896 10.576 17.6576 10.692 18.1216 10.924C18.5856 11.156 18.9336 11.476 19.1656 11.884C19.3976 12.292 19.5136 12.76 19.5136 13.288ZM16.2616 14.344C16.6536 14.344 16.9456 14.252 17.1376 14.068C17.3296 13.884 17.4256 13.624 17.4256 13.288C17.4256 12.952 17.3296 12.692 17.1376 12.508C16.9456 12.324 16.6536 12.232 16.2616 12.232H15.1456V14.344H16.2616ZM24.5659 19.084C23.7739 19.084 23.0459 18.9 22.3819 18.532C21.7259 18.164 21.2019 17.652 20.8099 16.996C20.4259 16.332 20.2339 15.588 20.2339 14.764C20.2339 13.94 20.4259 13.2 20.8099 12.544C21.2019 11.888 21.7259 11.376 22.3819 11.008C23.0459 10.64 23.7739 10.456 24.5659 10.456C25.3579 10.456 26.0819 10.64 26.7379 11.008C27.4019 11.376 27.9219 11.888 28.2979 12.544C28.6819 13.2 28.8739 13.94 28.8739 14.764C28.8739 15.588 28.6819 16.332 28.2979 16.996C27.9139 17.652 27.3939 18.164 26.7379 18.532C26.0819 18.9 25.3579 19.084 24.5659 19.084ZM24.5659 17.212C25.2379 17.212 25.7739 16.988 26.1739 16.54C26.5819 16.092 26.7859 15.5 26.7859 14.764C26.7859 14.02 26.5819 13.428 26.1739 12.988C25.7739 12.54 25.2379 12.316 24.5659 12.316C23.8859 12.316 23.3419 12.536 22.9339 12.976C22.5339 13.416 22.3339 14.012 22.3339 14.764C22.3339 15.508 22.5339 16.104 22.9339 16.552C23.3419 16.992 23.8859 17.212 24.5659 17.212ZM32.0675 10.576V19H30.0155V10.576H32.0675ZM36.6025 19.084C35.9865 19.084 35.4345 18.984 34.9465 18.784C34.4585 18.584 34.0665 18.288 33.7705 17.896C33.4825 17.504 33.3305 17.032 33.3145 16.48H35.4985C35.5305 16.792 35.6385 17.032 35.8225 17.2C36.0065 17.36 36.2465 17.44 36.5425 17.44C36.8465 17.44 37.0865 17.372 37.2625 17.236C37.4385 17.092 37.5265 16.896 37.5265 16.648C37.5265 16.44 37.4545 16.268 37.3105 16.132C37.1745 15.996 37.0025 15.884 36.7945 15.796C36.5945 15.708 36.3065 15.608 35.9305 15.496C35.3865 15.328 34.9425 15.16 34.5985 14.992C34.2545 14.824 33.9585 14.576 33.7105 14.248C33.4625 13.92 33.3385 13.492 33.3385 12.964C33.3385 12.18 33.6225 11.568 34.1905 11.128C34.7585 10.68 35.4985 10.456 36.4105 10.456C37.3385 10.456 38.0865 10.68 38.6545 11.128C39.2225 11.568 39.5265 12.184 39.5665 12.976H37.3465C37.3305 12.704 37.2305 12.492 37.0465 12.34C36.8625 12.18 36.6265 12.1 36.3385 12.1C36.0905 12.1 35.8905 12.168 35.7385 12.304C35.5865 12.432 35.5105 12.62 35.5105 12.868C35.5105 13.14 35.6385 13.352 35.8945 13.504C36.1505 13.656 36.5505 13.82 37.0945 13.996C37.6385 14.18 38.0785 14.356 38.4145 14.524C38.7585 14.692 39.0545 14.936 39.3025 15.256C39.5505 15.576 39.6745 15.988 39.6745 16.492C39.6745 16.972 39.5505 17.408 39.3025 17.8C39.0625 18.192 38.7105 18.504 38.2465 18.736C37.7825 18.968 37.2345 19.084 36.6025 19.084ZM44.9214 19.084C44.1294 19.084 43.4014 18.9 42.7374 18.532C42.0814 18.164 41.5574 17.652 41.1654 16.996C40.7814 16.332 40.5894 15.588 40.5894 14.764C40.5894 13.94 40.7814 13.2 41.1654 12.544C41.5574 11.888 42.0814 11.376 42.7374 11.008C43.4014 10.64 44.1294 10.456 44.9214 10.456C45.7134 10.456 46.4374 10.64 47.0934 11.008C47.7574 11.376 48.2774 11.888 48.6534 12.544C49.0374 13.2 49.2294 13.94 49.2294 14.764C49.2294 15.588 49.0374 16.332 48.6534 16.996C48.2694 17.652 47.7494 18.164 47.0934 18.532C46.4374 18.9 45.7134 19.084 44.9214 19.084ZM44.9214 17.212C45.5934 17.212 46.1294 16.988 46.5294 16.54C46.9374 16.092 47.1414 15.5 47.1414 14.764C47.1414 14.02 46.9374 13.428 46.5294 12.988C46.1294 12.54 45.5934 12.316 44.9214 12.316C44.2414 12.316 43.6974 12.536 43.2894 12.976C42.8894 13.416 42.6894 14.012 42.6894 14.764C42.6894 15.508 42.8894 16.104 43.2894 16.552C43.6974 16.992 44.2414 17.212 44.9214 17.212ZM57.907 19H55.855L52.423 13.804V19H50.371V10.576H52.423L55.855 15.796V10.576H57.907V19Z" fill="#5A3166"/>
</svg>
