<svg width="66" height="30" viewBox="0 0 66 30" fill="none" xmlns="http://www.w3.org/2000/svg">
<path d="M0 5C0 2.23858 2.23858 0 5 0H61C63.7614 0 66 2.23858 66 5V25C66 27.7614 63.7614 30 61 30H5C2.23858 30 0 27.7614 0 25V5Z" fill="#6970C5"/>
<path d="M18.4239 13.24C18.2719 12.96 18.0519 12.748 17.7639 12.604C17.4839 12.452 17.1519 12.376 16.7679 12.376C16.1039 12.376 15.5719 12.596 15.1719 13.036C14.7719 13.468 14.5719 14.048 14.5719 14.776C14.5719 15.552 14.7799 16.16 15.1959 16.6C15.6199 17.032 16.1999 17.248 16.9359 17.248C17.4399 17.248 17.8639 17.12 18.2079 16.864C18.5599 16.608 18.8159 16.24 18.9759 15.76H16.3719V14.248H20.8359V16.156C20.6839 16.668 20.4239 17.144 20.0559 17.584C19.6959 18.024 19.2359 18.38 18.6759 18.652C18.1159 18.924 17.4839 19.06 16.7799 19.06C15.9479 19.06 15.2039 18.88 14.5479 18.52C13.8999 18.152 13.3919 17.644 13.0239 16.996C12.6639 16.348 12.4839 15.608 12.4839 14.776C12.4839 13.944 12.6639 13.204 13.0239 12.556C13.3919 11.9 13.8999 11.392 14.5479 11.032C15.1959 10.664 15.9359 10.48 16.7679 10.48C17.7759 10.48 18.6239 10.724 19.3119 11.212C20.0079 11.7 20.4679 12.376 20.6919 13.24H18.4239ZM29.2685 10.576V19H27.2165V15.532H24.0245V19H21.9725V10.576H24.0245V13.876H27.2165V10.576H29.2685ZM34.7339 19.084C33.9419 19.084 33.2139 18.9 32.5499 18.532C31.8939 18.164 31.3699 17.652 30.9779 16.996C30.5939 16.332 30.4019 15.588 30.4019 14.764C30.4019 13.94 30.5939 13.2 30.9779 12.544C31.3699 11.888 31.8939 11.376 32.5499 11.008C33.2139 10.64 33.9419 10.456 34.7339 10.456C35.5259 10.456 36.2499 10.64 36.9059 11.008C37.5699 11.376 38.0899 11.888 38.4659 12.544C38.8499 13.2 39.0419 13.94 39.0419 14.764C39.0419 15.588 38.8499 16.332 38.4659 16.996C38.0819 17.652 37.5619 18.164 36.9059 18.532C36.2499 18.9 35.5259 19.084 34.7339 19.084ZM34.7339 17.212C35.4059 17.212 35.9419 16.988 36.3419 16.54C36.7499 16.092 36.9539 15.5 36.9539 14.764C36.9539 14.02 36.7499 13.428 36.3419 12.988C35.9419 12.54 35.4059 12.316 34.7339 12.316C34.0539 12.316 33.5099 12.536 33.1019 12.976C32.7019 13.416 32.5019 14.012 32.5019 14.764C32.5019 15.508 32.7019 16.104 33.1019 16.552C33.5099 16.992 34.0539 17.212 34.7339 17.212ZM43.2315 19.084C42.6155 19.084 42.0635 18.984 41.5755 18.784C41.0875 18.584 40.6955 18.288 40.3995 17.896C40.1115 17.504 39.9595 17.032 39.9435 16.48H42.1275C42.1595 16.792 42.2675 17.032 42.4515 17.2C42.6355 17.36 42.8755 17.44 43.1715 17.44C43.4755 17.44 43.7155 17.372 43.8915 17.236C44.0675 17.092 44.1555 16.896 44.1555 16.648C44.1555 16.44 44.0835 16.268 43.9395 16.132C43.8035 15.996 43.6315 15.884 43.4235 15.796C43.2235 15.708 42.9355 15.608 42.5595 15.496C42.0155 15.328 41.5715 15.16 41.2275 14.992C40.8835 14.824 40.5875 14.576 40.3395 14.248C40.0915 13.92 39.9675 13.492 39.9675 12.964C39.9675 12.18 40.2515 11.568 40.8195 11.128C41.3875 10.68 42.1275 10.456 43.0395 10.456C43.9675 10.456 44.7155 10.68 45.2835 11.128C45.8515 11.568 46.1555 12.184 46.1955 12.976H43.9755C43.9595 12.704 43.8595 12.492 43.6755 12.34C43.4915 12.18 43.2555 12.1 42.9675 12.1C42.7195 12.1 42.5195 12.168 42.3675 12.304C42.2155 12.432 42.1395 12.62 42.1395 12.868C42.1395 13.14 42.2675 13.352 42.5235 13.504C42.7795 13.656 43.1795 13.82 43.7235 13.996C44.2675 14.18 44.7075 14.356 45.0435 14.524C45.3875 14.692 45.6835 14.936 45.9315 15.256C46.1795 15.576 46.3035 15.988 46.3035 16.492C46.3035 16.972 46.1795 17.408 45.9315 17.8C45.6915 18.192 45.3395 18.504 44.8755 18.736C44.4115 18.968 43.8635 19.084 43.2315 19.084ZM53.6263 10.576V12.22H51.3943V19H49.3423V12.22H47.1103V10.576H53.6263Z" fill="#363A66"/>
</svg>
