<svg width="44" height="30" viewBox="0 0 44 30" fill="none" xmlns="http://www.w3.org/2000/svg">
<path d="M0 5C0 2.23858 2.23858 0 5 0H39C41.7614 0 44 2.23858 44 5V25C44 27.7614 41.7614 30 39 30H5C2.23858 30 0 27.7614 0 25V5Z" fill="#7ED4C9"/>
<path d="M15.2101 10.576V19H13.1581V10.576H15.2101ZM16.3491 14.776C16.3491 13.944 16.5291 13.204 16.8891 12.556C17.2491 11.9 17.7491 11.392 18.3891 11.032C19.0371 10.664 19.7691 10.48 20.5851 10.48C21.5851 10.48 22.4411 10.744 23.1531 11.272C23.8651 11.8 24.3411 12.52 24.5811 13.432H22.3251C22.1571 13.08 21.9171 12.812 21.6051 12.628C21.3011 12.444 20.9531 12.352 20.5611 12.352C19.9291 12.352 19.4171 12.572 19.0251 13.012C18.6331 13.452 18.4371 14.04 18.4371 14.776C18.4371 15.512 18.6331 16.1 19.0251 16.54C19.4171 16.98 19.9291 17.2 20.5611 17.2C20.9531 17.2 21.3011 17.108 21.6051 16.924C21.9171 16.74 22.1571 16.472 22.3251 16.12H24.5811C24.3411 17.032 23.8651 17.752 23.1531 18.28C22.4411 18.8 21.5851 19.06 20.5851 19.06C19.7691 19.06 19.0371 18.88 18.3891 18.52C17.7491 18.152 17.2491 17.644 16.8891 16.996C16.5291 16.348 16.3491 15.608 16.3491 14.776ZM27.8898 12.22V13.924H30.6378V15.508H27.8898V17.356H30.9978V19H25.8378V10.576H30.9978V12.22H27.8898Z" fill="#3D6661"/>
</svg>
