<svg width="58" height="30" viewBox="0 0 58 30" fill="none" xmlns="http://www.w3.org/2000/svg">
<path d="M0 5C0 2.23858 2.23858 0 5 0H53C55.7614 0 58 2.23858 58 5V25C58 27.7614 55.7614 30 53 30H5C2.23858 30 0 27.7614 0 25V5Z" fill="#5F606D"/>
<path d="M16.0191 10.576C16.9071 10.576 17.6831 10.752 18.3471 11.104C19.0111 11.456 19.5231 11.952 19.8831 12.592C20.2511 13.224 20.4351 13.956 20.4351 14.788C20.4351 15.612 20.2511 16.344 19.8831 16.984C19.5231 17.624 19.0071 18.12 18.3351 18.472C17.6711 18.824 16.8991 19 16.0191 19H12.8631V10.576H16.0191ZM15.8871 17.224C16.6631 17.224 17.2671 17.012 17.6991 16.588C18.1311 16.164 18.3471 15.564 18.3471 14.788C18.3471 14.012 18.1311 13.408 17.6991 12.976C17.2671 12.544 16.6631 12.328 15.8871 12.328H14.9151V17.224H15.8871ZM26.8259 17.512H23.6819L23.1779 19H21.0299L24.0779 10.576H26.4539L29.5019 19H27.3299L26.8259 17.512ZM26.2979 15.928L25.2539 12.844L24.2219 15.928H26.2979ZM34.7255 19L32.9735 15.82H32.4815V19H30.4295V10.576H33.8735C34.5375 10.576 35.1015 10.692 35.5655 10.924C36.0375 11.156 36.3895 11.476 36.6215 11.884C36.8535 12.284 36.9695 12.732 36.9695 13.228C36.9695 13.788 36.8095 14.288 36.4895 14.728C36.1775 15.168 35.7135 15.48 35.0975 15.664L37.0415 19H34.7255ZM32.4815 14.368H33.7535C34.1295 14.368 34.4095 14.276 34.5935 14.092C34.7855 13.908 34.8815 13.648 34.8815 13.312C34.8815 12.992 34.7855 12.74 34.5935 12.556C34.4095 12.372 34.1295 12.28 33.7535 12.28H32.4815V14.368ZM43.1417 19L40.3097 15.28V19H38.2577V10.576H40.3097V14.272L43.1177 10.576H45.5297L42.2657 14.704L45.6497 19H43.1417Z" fill="#B2B4CC"/>
</svg>
