<svg width="67" height="30" viewBox="0 0 67 30" fill="none" xmlns="http://www.w3.org/2000/svg">
<path d="M0 5C0 2.23858 2.23858 0 5 0H62C64.7614 0 67 2.23858 67 5V25C67 27.7614 64.7614 30 62 30H5C2.23858 30 0 27.7614 0 25V5Z" fill="#9BB4E8"/>
<path d="M18.7104 10.576V12.22H15.2784V13.996H17.8464V15.592H15.2784V19H13.2264V10.576H18.7104ZM21.8409 17.416H24.5289V19H19.7889V10.576H21.8409V17.416ZM32.7317 10.576L29.8157 16.216V19H27.7637V16.216L24.8477 10.576H27.1757L28.8077 14.104L30.4277 10.576H32.7317ZM35.6105 10.576V19H33.5585V10.576H35.6105ZM44.6335 19H42.5815L39.1495 13.804V19H37.0975V10.576H39.1495L42.5815 15.796V10.576H44.6335V19ZM51.713 13.24C51.561 12.96 51.341 12.748 51.053 12.604C50.773 12.452 50.441 12.376 50.057 12.376C49.393 12.376 48.861 12.596 48.461 13.036C48.061 13.468 47.861 14.048 47.861 14.776C47.861 15.552 48.069 16.16 48.485 16.6C48.909 17.032 49.489 17.248 50.225 17.248C50.729 17.248 51.153 17.12 51.497 16.864C51.849 16.608 52.105 16.24 52.265 15.76H49.661V14.248H54.125V16.156C53.973 16.668 53.713 17.144 53.345 17.584C52.985 18.024 52.525 18.38 51.965 18.652C51.405 18.924 50.773 19.06 50.069 19.06C49.237 19.06 48.493 18.88 47.837 18.52C47.189 18.152 46.681 17.644 46.313 16.996C45.953 16.348 45.773 15.608 45.773 14.776C45.773 13.944 45.953 13.204 46.313 12.556C46.681 11.9 47.189 11.392 47.837 11.032C48.485 10.664 49.225 10.48 50.057 10.48C51.065 10.48 51.913 10.724 52.601 11.212C53.297 11.7 53.757 12.376 53.981 13.24H51.713Z" fill="#444F66"/>
</svg>
