<svg width="78" height="30" viewBox="0 0 78 30" fill="none" xmlns="http://www.w3.org/2000/svg">
<path d="M0 5C0 2.23858 2.23858 0 5 0H73C75.7614 0 78 2.23858 78 5V25C78 27.7614 75.7614 30 73 30H5C2.23858 30 0 27.7614 0 25V5Z" fill="#F87C7A"/>
<path d="M19.4042 13.288C19.4042 13.776 19.2922 14.224 19.0682 14.632C18.8442 15.032 18.5002 15.356 18.0362 15.604C17.5722 15.852 16.9962 15.976 16.3082 15.976H15.0362V19H12.9842V10.576H16.3082C16.9802 10.576 17.5482 10.692 18.0122 10.924C18.4762 11.156 18.8242 11.476 19.0562 11.884C19.2882 12.292 19.4042 12.76 19.4042 13.288ZM16.1522 14.344C16.5442 14.344 16.8362 14.252 17.0282 14.068C17.2202 13.884 17.3162 13.624 17.3162 13.288C17.3162 12.952 17.2202 12.692 17.0282 12.508C16.8362 12.324 16.5442 12.232 16.1522 12.232H15.0362V14.344H16.1522ZM23.5205 19.084C22.9045 19.084 22.3525 18.984 21.8645 18.784C21.3765 18.584 20.9845 18.288 20.6885 17.896C20.4005 17.504 20.2485 17.032 20.2325 16.48H22.4165C22.4485 16.792 22.5565 17.032 22.7405 17.2C22.9245 17.36 23.1645 17.44 23.4605 17.44C23.7645 17.44 24.0045 17.372 24.1805 17.236C24.3565 17.092 24.4445 16.896 24.4445 16.648C24.4445 16.44 24.3725 16.268 24.2285 16.132C24.0925 15.996 23.9205 15.884 23.7125 15.796C23.5125 15.708 23.2245 15.608 22.8485 15.496C22.3045 15.328 21.8605 15.16 21.5165 14.992C21.1725 14.824 20.8765 14.576 20.6285 14.248C20.3805 13.92 20.2565 13.492 20.2565 12.964C20.2565 12.18 20.5405 11.568 21.1085 11.128C21.6765 10.68 22.4165 10.456 23.3285 10.456C24.2565 10.456 25.0045 10.68 25.5725 11.128C26.1405 11.568 26.4445 12.184 26.4845 12.976H24.2645C24.2485 12.704 24.1485 12.492 23.9645 12.34C23.7805 12.18 23.5445 12.1 23.2565 12.1C23.0085 12.1 22.8085 12.168 22.6565 12.304C22.5045 12.432 22.4285 12.62 22.4285 12.868C22.4285 13.14 22.5565 13.352 22.8125 13.504C23.0685 13.656 23.4685 13.82 24.0125 13.996C24.5565 14.18 24.9965 14.356 25.3325 14.524C25.6765 14.692 25.9725 14.936 26.2205 15.256C26.4685 15.576 26.5925 15.988 26.5925 16.492C26.5925 16.972 26.4685 17.408 26.2205 17.8C25.9805 18.192 25.6285 18.504 25.1645 18.736C24.7005 18.968 24.1525 19.084 23.5205 19.084ZM35.0793 10.576L32.1633 16.216V19H30.1113V16.216L27.1953 10.576H29.5233L31.1553 14.104L32.7753 10.576H35.0793ZM35.5581 14.776C35.5581 13.944 35.7381 13.204 36.0981 12.556C36.4581 11.9 36.9581 11.392 37.5981 11.032C38.2461 10.664 38.9781 10.48 39.7941 10.48C40.7941 10.48 41.6501 10.744 42.3621 11.272C43.0741 11.8 43.5501 12.52 43.7901 13.432H41.5341C41.3661 13.08 41.1261 12.812 40.8141 12.628C40.5101 12.444 40.1621 12.352 39.7701 12.352C39.1381 12.352 38.6261 12.572 38.2341 13.012C37.8421 13.452 37.6461 14.04 37.6461 14.776C37.6461 15.512 37.8421 16.1 38.2341 16.54C38.6261 16.98 39.1381 17.2 39.7701 17.2C40.1621 17.2 40.5101 17.108 40.8141 16.924C41.1261 16.74 41.3661 16.472 41.5341 16.12H43.7901C43.5501 17.032 43.0741 17.752 42.3621 18.28C41.6501 18.8 40.7941 19.06 39.7941 19.06C38.9781 19.06 38.2461 18.88 37.5981 18.52C36.9581 18.152 36.4581 17.644 36.0981 16.996C35.7381 16.348 35.5581 15.608 35.5581 14.776ZM52.3427 10.576V19H50.2907V15.532H47.0987V19H45.0467V10.576H47.0987V13.876H50.2907V10.576H52.3427ZM55.8761 10.576V19H53.8241V10.576H55.8761ZM57.0151 14.776C57.0151 13.944 57.1951 13.204 57.5551 12.556C57.9151 11.9 58.4151 11.392 59.0551 11.032C59.7031 10.664 60.4351 10.48 61.2511 10.48C62.2511 10.48 63.1071 10.744 63.8191 11.272C64.5311 11.8 65.0071 12.52 65.2471 13.432H62.9911C62.8231 13.08 62.5831 12.812 62.2711 12.628C61.9671 12.444 61.6191 12.352 61.2271 12.352C60.5951 12.352 60.0831 12.572 59.6911 13.012C59.2991 13.452 59.1031 14.04 59.1031 14.776C59.1031 15.512 59.2991 16.1 59.6911 16.54C60.0831 16.98 60.5951 17.2 61.2271 17.2C61.6191 17.2 61.9671 17.108 62.2711 16.924C62.5831 16.74 62.8231 16.472 62.9911 16.12H65.2471C65.0071 17.032 64.5311 17.752 63.8191 18.28C63.1071 18.8 62.2511 19.06 61.2511 19.06C60.4351 19.06 59.7031 18.88 59.0551 18.52C58.4151 18.152 57.9151 17.644 57.5551 16.996C57.1951 16.348 57.0151 15.608 57.0151 14.776Z" fill="#663332"/>
</svg>
