<svg width="77" height="30" viewBox="0 0 77 30" fill="none" xmlns="http://www.w3.org/2000/svg">
<path d="M0 5C0 2.23858 2.23858 0 5 0H72C74.7614 0 77 2.23858 77 5V25C77 27.7614 74.7614 30 72 30H5C2.23858 30 0 27.7614 0 25V5Z" fill="#0773C7"/>
<path d="M15.9039 10.576C16.7919 10.576 17.5679 10.752 18.2319 11.104C18.8959 11.456 19.4079 11.952 19.7679 12.592C20.1359 13.224 20.3199 13.956 20.3199 14.788C20.3199 15.612 20.1359 16.344 19.7679 16.984C19.4079 17.624 18.8919 18.12 18.2199 18.472C17.5559 18.824 16.7839 19 15.9039 19H12.7479V10.576H15.9039ZM15.7719 17.224C16.5479 17.224 17.1519 17.012 17.5839 16.588C18.0159 16.164 18.2319 15.564 18.2319 14.788C18.2319 14.012 18.0159 13.408 17.5839 12.976C17.1519 12.544 16.5479 12.328 15.7719 12.328H14.7999V17.224H15.7719ZM25.7627 19L24.0107 15.82H23.5187V19H21.4667V10.576H24.9107C25.5747 10.576 26.1387 10.692 26.6027 10.924C27.0747 11.156 27.4267 11.476 27.6587 11.884C27.8907 12.284 28.0067 12.732 28.0067 13.228C28.0067 13.788 27.8467 14.288 27.5267 14.728C27.2147 15.168 26.7507 15.48 26.1347 15.664L28.0787 19H25.7627ZM23.5187 14.368H24.7907C25.1667 14.368 25.4467 14.276 25.6307 14.092C25.8227 13.908 25.9187 13.648 25.9187 13.312C25.9187 12.992 25.8227 12.74 25.6307 12.556C25.4467 12.372 25.1667 12.28 24.7907 12.28H23.5187V14.368ZM34.5388 17.512H31.3948L30.8908 19H28.7428L31.7908 10.576H34.1668L37.2148 19H35.0428L34.5388 17.512ZM34.0108 15.928L32.9668 12.844L31.9348 15.928H34.0108ZM43.7344 13.24C43.5824 12.96 43.3624 12.748 43.0744 12.604C42.7944 12.452 42.4624 12.376 42.0784 12.376C41.4144 12.376 40.8824 12.596 40.4824 13.036C40.0824 13.468 39.8824 14.048 39.8824 14.776C39.8824 15.552 40.0904 16.16 40.5064 16.6C40.9304 17.032 41.5104 17.248 42.2464 17.248C42.7504 17.248 43.1744 17.12 43.5184 16.864C43.8704 16.608 44.1264 16.24 44.2864 15.76H41.6824V14.248H46.1464V16.156C45.9944 16.668 45.7344 17.144 45.3664 17.584C45.0064 18.024 44.5464 18.38 43.9864 18.652C43.4264 18.924 42.7944 19.06 42.0904 19.06C41.2584 19.06 40.5144 18.88 39.8584 18.52C39.2104 18.152 38.7024 17.644 38.3344 16.996C37.9744 16.348 37.7944 15.608 37.7944 14.776C37.7944 13.944 37.9744 13.204 38.3344 12.556C38.7024 11.9 39.2104 11.392 39.8584 11.032C40.5064 10.664 41.2464 10.48 42.0784 10.48C43.0864 10.48 43.9344 10.724 44.6224 11.212C45.3184 11.7 45.7784 12.376 46.0024 13.24H43.7344ZM51.2671 19.084C50.4751 19.084 49.7471 18.9 49.0831 18.532C48.4271 18.164 47.9031 17.652 47.5111 16.996C47.1271 16.332 46.9351 15.588 46.9351 14.764C46.9351 13.94 47.1271 13.2 47.5111 12.544C47.9031 11.888 48.4271 11.376 49.0831 11.008C49.7471 10.64 50.4751 10.456 51.2671 10.456C52.0591 10.456 52.7831 10.64 53.4391 11.008C54.1031 11.376 54.6231 11.888 54.9991 12.544C55.3831 13.2 55.5751 13.94 55.5751 14.764C55.5751 15.588 55.3831 16.332 54.9991 16.996C54.6151 17.652 54.0951 18.164 53.4391 18.532C52.7831 18.9 52.0591 19.084 51.2671 19.084ZM51.2671 17.212C51.9391 17.212 52.4751 16.988 52.8751 16.54C53.2831 16.092 53.4871 15.5 53.4871 14.764C53.4871 14.02 53.2831 13.428 52.8751 12.988C52.4751 12.54 51.9391 12.316 51.2671 12.316C50.5871 12.316 50.0431 12.536 49.6351 12.976C49.2351 13.416 49.0351 14.012 49.0351 14.764C49.0351 15.508 49.2351 16.104 49.6351 16.552C50.0431 16.992 50.5871 17.212 51.2671 17.212ZM64.2527 19H62.2007L58.7687 13.804V19H56.7167V10.576H58.7687L62.2007 15.796V10.576H64.2527V19Z" fill="#043B66"/>
</svg>
