<svg width="13" height="19" viewBox="0 0 13 19" fill="none" xmlns="http://www.w3.org/2000/svg">
<path d="M10.3909 10.6347C12.5364 8.43354 12.5364 4.85201 10.3909 2.65088C8.24546 0.449707 4.75458 0.449707 2.60909 2.65088C0.463637 4.85201 0.463637 8.43354 2.60909 10.6347C3.51724 11.5664 4.66645 12.1036 5.8526 12.2466V14.1366H4.5579C4.20037 14.1366 3.91055 14.4339 3.91055 14.8007C3.91055 15.1675 4.20037 15.4649 4.5579 15.4649H5.8526V17.3358C5.85263 17.7026 6.14245 18 6.50002 18C6.85755 18 7.14737 17.7026 7.14737 17.3358V15.4649H8.4421C8.79963 15.4649 9.08945 15.1675 9.08945 14.8007C9.08945 14.4339 8.79963 14.1366 8.4421 14.1366H7.14737V12.2466C8.33356 12.1036 9.48276 11.5664 10.3909 10.6347ZM3.52461 9.69539C1.88396 8.01216 1.88396 5.27336 3.52461 3.59013C5.16523 1.90696 7.8347 1.90686 9.47542 3.59013C11.1161 5.27336 11.1161 8.01216 9.47542 9.69539C7.83477 11.3786 5.16526 11.3786 3.52461 9.69539Z" fill="#C13145" stroke="#C13145"/>
</svg>
