<svg width="20" height="20" viewBox="0 0 20 20" fill="none" xmlns="http://www.w3.org/2000/svg">
<path d="M18.9903 1.65332C18.9821 1.58868 18.9678 1.52643 18.9442 1.46802C18.9434 1.46655 18.9434 1.46454 18.9431 1.46271C18.9431 1.46234 18.9427 1.46198 18.9423 1.46161C18.9163 1.40009 18.8808 1.34424 18.8407 1.29242C18.8308 1.28015 18.8211 1.26807 18.8107 1.25653C18.7678 1.20819 18.7213 1.16351 18.6673 1.12708C18.6658 1.12598 18.664 1.12561 18.6625 1.12451C18.6104 1.09009 18.5527 1.06409 18.4922 1.04358C18.4772 1.03827 18.4626 1.03369 18.4472 1.02966C18.3839 1.01245 18.3187 1 18.25 1H13C12.586 1 12.25 1.336 12.25 1.75C12.25 2.164 12.586 2.5 13 2.5H16.4391L11.9627 6.97638C10.769 6.02167 9.29944 5.5 7.75 5.5C4.0282 5.5 1 8.5282 1 12.25C1 15.9718 4.0282 19 7.75 19C11.4718 19 14.5 15.9718 14.5 12.25C14.5 10.7013 13.9787 9.23206 13.0233 8.03729L17.5 3.56055V7C17.5 7.414 17.836 7.75 18.25 7.75C18.664 7.75 19 7.414 19 7V1.75C19 1.73425 18.9963 1.71924 18.9954 1.70386C18.9943 1.68665 18.9925 1.67017 18.9903 1.65332ZM7.75 17.5C4.85492 17.5 2.5 15.1451 2.5 12.25C2.5 9.35492 4.85492 7 7.75 7C9.15167 7 10.4713 7.54565 11.4636 8.53442C12.4543 9.52869 13 10.8483 13 12.25C13 15.1451 10.6451 17.5 7.75 17.5V17.5Z" fill="#084456" stroke="#084456"/>
</svg>
